{"title":"Tales.of.an.Ancient.Empire.2010.R5.H264.Feel-Free ","uid":5912592,"size":905476827,"categoryP":"video","categoryS":"movies","magnet":"?xt=urn:btih:7b3d556b14b9454b84afd5251174da5a6f6b28e8&amp;dn=Tales.of.an.Ancient.Empire.2010.R5.H264.Feel-Free+&amp;tr=udp%3A%2F%2Ftracker.openbittorrent.com%3A80&amp;tr=udp%3A%2F%2Fopen.demonii.com%3A1337&amp;tr=udp%3A%2F%2Ftracker.coppersurfer.tk%3A6969&amp;tr=udp%3A%2F%2Fexodus.desync.com%3A6969","seeders":0,"leechers":0,"uploader":"deffjam555","files":10,"time":1288101687,"description":"cover\n &lt;a href=&quot;\nhttp://www.dreadcentral.com/img/news/jan09/talesancientempireteaser1b.jpg&quot; rel=&quot;nofollow&quot; target=&quot;_NEW&quot;&gt;\nhttp://www.dreadcentral.com/img/news/jan09/talesancientempireteaser1b.jpg&lt;/a&gt;\n\nGenre:Action | Adventure\nLanguage:English\nIMDb:http://www.imdb.com/title/tt1136688/\nSource:DVD5 RUS\nSubtitles:Romana\n\nGeneral\nComplete name :Tales.of.an.Ancient.Empire.2010.R5.H264.Feel-Free\nFormat : MPEG-4\nFormat profile : Base Media / Version 2\nCodec ID : mp42\nFile size : 863 MiB\nDuration : 1h 25mn\nOverall bit rate : 1 409 Kbps\nVideo #1\nCodec ID : avc1\nCodec ID/Info : Advanced Video Coding\nDuration : 1h 25mn\nBit rate mode : Variable\nBit rate : 854 Kbps\nWidth : 720 pixels\nHeight : 384 pixels\nDisplay aspect ratio : 1.875\nFrame rate mode : Constant\nFrame rate : 23.976 fps\nResolution : 24 bits\nColorimetry : 4:2:0\nScan type : Progressive\nBits/(Pixel*Frame) : 0.129\nStream size : 523 MiB (61%)\nAudio #2\nID : 2\nFormat : AAC\nFormat/Info : Advanced Audio Codec\nFormat version : Version 4\nFormat profile : LC\nFormat settings, SBR : No\nCodec ID : 40\nDuration : 1h 25mn\nBit rate mode : Constant\nBit rate : 551 Kbps\nNominal bit rate : 576 Kbps\nChannel(s) : 6 channels\nChannel positions : Front: L C R, Rear: L R, LFE\nSampling rate : 48.0 KHz\nResolution : 16 bits\nStream size : 338 MiB (39%)\n\nPlot:\nA princess is on a quest to unite the five greatest warriors to save her kingdom from a demon sorceress.\n\nTRAILER: &lt;a href=&quot;\nhttp://www.traileraddict.com/trailer/tales-of-an-ancient-empire/red-band-trailer&quot; rel=&quot;nofollow&quot; target=&quot;_NEW&quot;&gt;\nhttp://www.traileraddict.com/trailer/tales-of-an-ancient-empire/red-band-trailer&lt;/a&gt;\n\nscreens\n &lt;a href=&quot;\nhttp://img215.imageshack.us/img215/6561/talesofanancientempire2.jpg&quot; rel=&quot;nofollow&quot; target=&quot;_NEW&quot;&gt;\nhttp://img215.imageshack.us/img215/6561/talesofanancientempire2.jpg&lt;/a&gt;\n &lt;a href=&quot;\nhttp://img8.imageshack.us/img8/6561/talesofanancientempire2.jpg&quot; rel=&quot;nofollow&quot; target=&quot;_NEW&quot;&gt;\nhttp://img8.imageshack.us/img8/6561/talesofanancientempire2.jpg&lt;/a&gt;\n &lt;a href=&quot;\nhttp://img25.imageshack.us/img25/6561/talesofanancientempire2.jpg&quot; rel=&quot;nofollow&quot; target=&quot;_NEW&quot;&gt;\nhttp://img25.imageshack.us/img25/6561/talesofanancientempire2.jpg&lt;/a&gt;\n &lt;a href=&quot;\nhttp://img801.imageshack.us/img801/3773/talesofanancientempire2q.jpg&quot; rel=&quot;nofollow&quot; target=&quot;_NEW&quot;&gt;\nhttp://img801.imageshack.us/img801/3773/talesofanancientempire2q.jpg&lt;/a&gt;","torrent":{"xt":"urn:btih:7b3d556b14b9454b84afd5251174da5a6f6b28e8","amp;dn":"Tales.of.an.Ancient.Empire.2010.R5.H264.Feel-Free+","amp;tr":["udp%3A%2F%2Ftracker.openbittorrent.com%3A80","udp%3A%2F%2Fopen.demonii.com%3A1337","udp%3A%2F%2Ftracker.coppersurfer.tk%3A6969","udp%3A%2F%2Fexodus.desync.com%3A6969"],"infoHash":"7b3d556b14b9454b84afd5251174da5a6f6b28e8","infoHashBuffer":{"type":"Buffer","data":[123,61,85,107,20,185,69,75,132,175,213,37,17,116,218,90,111,107,40,232]},"announce":[],"urlList":[]}}